<svg width="74" height="76.50007057189941" xmlns="http://www.w3.org/2000/svg">

 <g>
  <title>background</title>
  <rect fill="none" id="canvas_background" height="78.500071" width="76" y="-1" x="-1"/>
 </g>
 <g>
  <title>Layer 1</title>
  <g transform="matrix(0.875,0,0,0.875,56.25000584125519,-0.49994659423828125) " fill="#d2fbf7" id="SvgjsG1383">
   <g id="svg_1">
    <path id="svg_2" fill="#fd746c" d="m-8.931487,7.428539l27.1809,0.8834l-27.1809,25.9958l0,-26.8792zm-1.9745,1.4513l0,26.7845l-25.2681,0c8.6166,-8.7334 16.8796,-17.8103 25.2681,-26.7845zm27.7053,3.628l3.4864,1.1989l-12.5877,7.4768l9.1013,-8.6757zm-68.1835,2.9656l5.5226,0l12.8654,14.0705l-5.9854,6.1204l-12.4026,0c0.0009,-6.7347 0,-13.4597 0,-20.1909zm-1.9746,1.2304l0,5.8364l-6.3555,0l6.3555,-5.8364zm3.363,20.9796l38.627,0l-10.7675,29.43465l-27.8595,-29.43465zm39.0898,4.54286l0,41.20229l-12.5878,-6.8775c4.1972,-11.443 8.3886,-22.879 12.5878,-34.32479z"/>
   </g>
  </g>
 </g>
</svg>